{
	"accessors": [
		{
			"bufferView": 0,
			"byteOffset": 0,
			"componentType": 5123,
			"count": 2292,
			"type": "SCALAR",
			"max": [
				2283
			],
			"min": [
				0
			]
		},
		{
			"bufferView": 1,
			"byteOffset": 0,
			"componentType": 5126,
			"count": 2284,
			"type": "VEC3",
			"max": [
				0.964901328086853,
				0.9753069281578064,
				0.9621639251708984
			],
			"min": [
				-0.9646192789077759,
				-0.9757384657859802,
				-0.9675606489181519
			],
			"name": "POSITION"
		},
		{
			"bufferView": 1,
			"byteOffset": 12,
			"componentType": 5126,
			"count": 2284,
			"type": "VEC2",
			"max": [
				0,
				1
			],
			"min": [
				0,
				1
			],
			"name": "TEXCOORD_0"
		},
		{
			"bufferView": 1,
			"byteOffset": 20,
			"componentType": 5126,
			"count": 2284,
			"type": "VEC3",
			"max": [
				0.9957695007324219,
				0.9972943067550659,
				0.9970681667327881
			],
			"min": [
				-0.995769739151001,
				-0.9972943067550659,
				-0.9970681071281433
			],
			"name": "NORMAL"
		},
		{
			"bufferView": 0,
			"byteOffset": 4584,
			"componentType": 5123,
			"count": 13416,
			"type": "SCALAR",
			"max": [
				12777
			],
			"min": [
				0
			]
		},
		{
			"bufferView": 2,
			"byteOffset": 0,
			"componentType": 5126,
			"count": 12778,
			"type": "VEC3",
			"max": [
				0.9841111898422241,
				1.0133217573165894,
				0.9926793575286865
			],
			"min": [
				-0.9578160047531128,
				-0.9993601441383362,
				-1.001206398010254
			],
			"name": "POSITION"
		},
		{
			"bufferView": 2,
			"byteOffset": 12,
			"componentType": 5126,
			"count": 12778,
			"type": "VEC2",
			"max": [
				1.0183135271072388,
				1
			],
			"min": [
				0,
				0.023801088333129884
			],
			"name": "TEXCOORD_0"
		},
		{
			"bufferView": 2,
			"byteOffset": 20,
			"componentType": 5126,
			"count": 12778,
			"type": "VEC3",
			"max": [
				0.9970354437828064,
				0.9997231960296631,
				0.997762143611908
			],
			"min": [
				-0.9994879364967346,
				-0.9989985227584839,
				-0.9992923736572266
			],
			"name": "NORMAL"
		}
	],
	"asset": {
		"generator": "Aspose.3D 23.1",
		"version": "2.0"
	},
	"buffers": [
		{
			"uri": "data:application/octet-stream;base64,",
			"byteLength": 534084
		}
	],
	"bufferViews": [
		{
			"buffer": 0,
			"byteOffset": 0,
			"byteLength": 31416,
			"target": 34963
		},
		{
			"buffer": 0,
			"byteOffset": 31420,
			"byteLength": 73344,
			"byteStride": 32,
			"target": 34962
		},
		{
			"buffer": 0,
			"byteOffset": 104768,
			"byteLength": 429312,
			"byteStride": 32,
			"target": 34962
		}
	],
	"materials": [
		{
			"name": "water",
			"pbrMetallicRoughness": {
				"baseColorFactor": [
					1,
					1,
					1,
					1
				],
				"metallicFactor": 1,
				"roughnessFactor": 1
			},
			"emissiveFactor": [
				0,
				0,
				0
			],
			"alphaMode": "OPAQUE",
			"doubleSided": true
		},
		{
			"name": "earth",
			"pbrMetallicRoughness": {
				"baseColorFactor": [
					1,
					1,
					1,
					1
				],
				"metallicFactor": 1,
				"roughnessFactor": 1
			},
			"emissiveFactor": [
				0,
				0,
				0
			],
			"alphaMode": "OPAQUE",
			"doubleSided": true
		}
	],
	"meshes": [
		{
			"primitives": [
				{
					"attributes": {
						"POSITION": 1,
						"TEXCOORD_0": 2,
						"NORMAL": 3
					},
					"indices": 0,
					"material": 0,
					"mode": 4
				},
				{
					"attributes": {
						"POSITION": 5,
						"TEXCOORD_0": 6,
						"NORMAL": 7
					},
					"indices": 4,
					"material": 1,
					"mode": 4
				}
			]
		}
	],
	"nodes": [
		{
			"mesh": 0,
			"name": "low_poly_earth"
		}
	],
	"scene": 0,
	"scenes": [
		{
			"nodes": [
				0
			]
		}
	]
}