<svg xmlns="http://www.w3.org/2000/svg" class="logo" viewBox="0 0 177.49 55.03">
    <path fill="#ffcd00" d="M147.32,42.32v-6.7L161,23c3.84-3.47,5.79-5.54,5.79-8.22,0-3.9-2.74-5.6-6.76-5.6-2.14,0-5.55.43-11.09,2.26l-2.14-8.47A45.34,45.34,0,0,1,161.64,0c10.6,0,15.3,6.15,15.3,13.28,0,6.15-4.14,10.77-9.63,15.7l-5.42,4.5h15.6v8.84Z"></path>
    <path class="logo-letter" fill="#0226AA" d="M32.48,10.33v29H22.54v-2A12.94,12.94,0,0,1,14,40.23c-7.14,0-14-5.54-14-15.83C.25,15.08,5.67,8.87,14.81,8.87c5.6,0,8.71.43,17.67,1.46M9.57,24.58c0,4.45,2.74,7.49,6.64,7.49a9.66,9.66,0,0,0,6.33-2.55V17.16c-2-.19-3.83-.31-6-.31-4.82,0-7,3.23-7,7.73"></path>
    <path class="logo-letter" fill="#0226AA" d="M104.52,10.33v29H94.59v-2a13,13,0,0,1-8.53,2.92c-7.13,0-14-5.54-14-15.83.24-9.32,5.67-15.53,14.8-15.53,5.61,0,8.72.43,17.67,1.46M81.61,24.58c0,4.45,2.74,7.49,6.64,7.49a9.69,9.69,0,0,0,6.34-2.55V17.16c-2-.19-3.84-.31-6-.31-4.81,0-7,3.23-7,7.73"></path>
    <path class="logo-letter" fill="#0226AA" d="M50.9,8.87c-9.2,0-14.63,6.22-14.81,15.53,0,9,5.74,14.39,12.49,15.27.44,0,1.14.1,2,.14h2.22c2.26-.1,4.73-.57,5.93-2a16,16,0,0,1-.23,3.09c0,.16,0,.32-.08.47a10.15,10.15,0,0,1-.34,1.23l0,.08a3.54,3.54,0,0,1-.49,1c-1.24,2.08-3.52,3.19-6.94,3.19a55.31,55.31,0,0,1-9-1.22l-1.4,7.55A38.39,38.39,0,0,0,51,55C62.6,55,68.57,48.7,68.57,38.9V10.34c-6.52-.67-10-1.47-17.67-1.47m7.74,22.41a39.59,39.59,0,0,1-6.34.43c-3.9,0-6.64-3.11-6.64-7.13,0-4.5,2.13-7.73,7-7.73,2.14,0,4,.12,6,.3Z"></path>
    <path class="logo-letter" fill="#0226AA" d="M126.73,8.87a129.76,129.76,0,0,0-17.61,1.46V53H119V37.45s1.88,2.28,8.65,2.34c7.36-.24,13.9-5.74,13.9-15.39-.31-9.31-5.6-15.53-14.81-15.53m-1.34,22.84a41.55,41.55,0,0,1-6.4-.43V17.16c2.08-.19,3.84-.3,6-.3,4.88,0,7,3.22,7,7.73,0,4-2.74,7.12-6.64,7.12"></path>
</svg>